<svg width="1200" height="900" viewBox="0 0 1200 900" fill="none" xmlns="http://www.w3.org/2000/svg">
  <rect width="1200" height="900" rx="48" fill="#21120C"/>
  <path d="M0 170C183 99.3333 382 64 597 64C812 64 1013 99.3333 1200 170V900H0V170Z" fill="url(#paint0_linear)"/>
  <rect x="134" y="192" width="932" height="496" rx="34" fill="#F0D6B7" fill-opacity="0.08" stroke="#FFD6AA" stroke-opacity="0.24"/>
  <rect x="262" y="278" width="676" height="312" rx="24" fill="#FFF2DE" fill-opacity="0.08"/>
  <path d="M330 622H868" stroke="#FFD8AC" stroke-opacity="0.36" stroke-width="22" stroke-linecap="round"/>
  <circle cx="392" cy="464" r="56" fill="#FF9B5B"/>
  <circle cx="594" cy="430" r="72" fill="#FFC68C"/>
  <circle cx="808" cy="466" r="56" fill="#F26E4A"/>
  <rect x="510" y="568" width="172" height="66" rx="33" fill="#2A170F"/>
  <path d="M0 744C217.333 681.333 417.333 650 600 650C782.667 650 982.667 681.333 1200 744V900H0V744Z" fill="#120B08"/>
  <defs>
    <linearGradient id="paint0_linear" x1="600" y1="64" x2="600" y2="900" gradientUnits="userSpaceOnUse">
      <stop stop-color="#AD5E39"/>
      <stop offset="0.55" stop-color="#5E3022"/>
      <stop offset="1" stop-color="#24150E"/>
    </linearGradient>
  </defs>
</svg>
